#!OML:ASF I:\Actors\actors\Patient Classification 1\Patient 1\Session 1\Subject1.ASF
:FULLY-SPECIFIED
:DEGREES
1314
root 0.200586 17.6012 7.92311 13.9144 -2.50109 -7.42303
lowerback 10.0123 -0.293863 5.54873
upperback 1.11892 0.261951 0.945713
thorax -4.43047 0.0379605 -2.17221
lowerneck 7.8844 -7.57597 -5.67528
upperneck -11.5109 -9.18041 16.1768
head -3.63736 -5.28979 6.3653
rclavicle -3.18055e-015 -1.55052e-014
rhumerus -22.0214 45.3375 -59.669
rradius 142.729
rwrist -29.5952
rhand 67.9733 -45.5118
rfingers 7.12502
rthumb 74.3242 15.9181
lclavicle -3.18055e-015 -1.55052e-014
lhumerus -13.7261 -57.8934 60.9164
lradius 141.2
lwrist 25.9467
lhand -1.77183 -38.5664
lfingers 7.12502
lthumb 23.8922 -10.0326
rfemur -14.9731 23.1262 19.4348
rtibia 8.19985
rfoot -10.5294 -24.0615
rtoes -2.57279
lfemur -8.85433 -32.3783 -5.22317
ltibia -0.20859
lfoot -11.9091 44.0323
ltoes 1.20073
1315
root 0.199483 17.6063 7.93086 13.9598 -2.52289 -7.37151
lowerback 9.86719 -0.410602 5.40407
upperback 0.934113 0.0938294 1.04555
thorax -4.55694 -0.0477492 -1.96331
lowerneck 7.60308 -7.50073 -5.74627
upperneck -10.5254 -9.17088 16.2768
head -3.28993 -5.24886 6.34863
rclavicle -7.95139e-016 7.95139e-015
rhumerus -21.2596 46.0632 -58.937
rradius 142.522
rwrist -30.192
rhand 67.2834 -44.5358
rfingers 7.12502
rthumb 74.5055 14.5077
lclavicle -7.95139e-016 7.95139e-015
lhumerus -15.3446 -57.7377 62.1403
lradius 141.173
lwrist 26.1587
lhand -2.11771 -38.328
lfingers 7.12502
lthumb 23.5605 -9.7512
rfemur -14.8967 23.2239 19.3744
rtibia 8.02289
rfoot -10.4814 -24.1687
rtoes -2.65074
lfemur -8.79793 -32.5594 -5.30334
ltibia -0.297215
lfoot -12.0755 44.223
ltoes 1.6356
1316
root 0.198417 17.615 7.9385 13.9938 -2.54913 -7.36339
lowerback 9.81664 -0.521908 5.33507
upperback 0.637225 -0.0488312 1.12029
thorax -4.85092 -0.127875 -1.82594
lowerneck 7.21658 -7.58084 -6.04952
upperneck -9.58635 -9.38495 16.5527
head -2.89186 -5.31607 6.42397
rclavicle 1.15295e-014 1.59028e-015
rhumerus -21.6223 45.9075 -59.5118
rradius 142.437
rwrist -30.3584
rhand 67.9014 -44.6737
rfingers 7.12502
rthumb 74.3444 16.5104
lclavicle 1.15295e-014 1.59028e-015
lhumerus -16.9149 -57.5358 63.3656
lradius 141.189
lwrist 26.4603
lhand -2.33793 -38.1835
lfingers 7.12502
lthumb 23.3492 -9.57965
rfemur -14.832 23.4496 19.3555
rtibia 7.89492
rfoot -10.5438 -24.3658
rtoes -2.33592
lfemur -8.7411 -32.7298 -5.32156
ltibia -0.366662
lfoot -12.3801 44.4175
ltoes 2.15603
1317
root 0.19655 17.623 7.94712 13.9186 -2.58466 -7.39054
lowerback 9.88791 -0.618619 5.28825
upperback 0.310365 -0.159788 1.2006
thorax -5.24249 -0.194863 -1.69811
lowerneck 6.4202 -7.87553 -6.91703
upperneck -8.15374 -9.97349 17.2501
head -2.18034 -5.53914 6.67704
rclavicle -1.98785e-015 -2.3059e-014
rhumerus -20.4954 45.6585 -58.5715
rradius 142.586
rwrist -33.4165
rhand 67.1584 -48.5541
rfingers 7.12502
rthumb 74.5354 10.051
lclavicle -1.98785e-015 -2.3059e-014
lhumerus -18.2566 -57.2381 64.5336
lradius 141.205
lwrist 26.9123
lhand -2.03947 -38.127
lfingers 7.12502
lthumb 23.6355 -9.55986
rfemur -14.6362 23.6694 19.4372
rtibia 7.77
rfoot -10.5938 -24.527
rtoes -2.10049
lfemur -8.52623 -32.8925 -5.37505
ltibia -0.452242
lfoot -12.6018 44.5874
ltoes 2.38838
1318
root 0.19572 17.6251 7.95769 13.7687 -2.59917 -7.41462
lowerback 9.99341 -0.718941 5.23776
upperback -0.0293463 -0.272789 1.2845
thorax -5.66753 -0.262867 -1.56243
lowerneck 5.5487 -8.45344 -7.50001
upperneck -6.76588 -10.9366 17.5535
head -1.45626 -5.9363 6.74873
rclavicle 3.57812e-015 -1.94809e-014
rhumerus -20.4983 45.4086 -58.8206
rradius 142.555
rwrist -34.1465
rhand 67.7891 -49.7602
rfingers 7.12502
rthumb 74.3753 11.0382
lclavicle 3.57812e-015 -1.94809e-014
lhumerus -19.3049 -56.863 65.5481
lradius 141.178
lwrist 27.4002
lhand -1.48501 -38.1403
lfingers 7.12502
lthumb 24.1673 -9.64283
rfemur -14.3419 23.7294 19.57
rtibia 7.64754
rfoot -10.61 -24.5518
rtoes -1.94932
lfemur -8.223 -32.984 -5.50137
ltibia -0.515614
lfoot -12.6584 44.6404
ltoes 2.27727
1319
root 0.197342 17.6231 7.97004 13.5829 -2.63052 -7.38207
lowerback 10.1295 -0.8013 5.18273
upperback -0.399486 -0.362533 1.31095
thorax -6.14173 -0.320878 -1.48595
lowerneck 4.6813 -9.08165 -8.36043
upperneck -5.07809 -12.0155 18.1286
head -0.5904 -6.38356 6.9198
rclavicle 6.26172e-015 1.51076e-014
rhumerus -20.836 45.6829 -59.4425
rradius 142.367
rwrist -33.2932
rhand 68.2765 -47.9967
rfingers 7.12502
rthumb 74.2358 14.4637
lclavicle 6.26172e-015 1.51076e-014
lhumerus -20.0971 -56.6148 66.3609
lradius 141.127
lwrist 27.7067
lhand -1.3188 -38.2306
lfingers 7.12502
lthumb 24.3266 -9.7544
rfemur -14.042 23.6927 19.6516
rtibia 7.60274
rfoot -10.6113 -24.4681
rtoes -1.92902
lfemur -7.87609 -33.0092 -5.75066
ltibia -0.551297
lfoot -12.7205 44.6021
ltoes 2.32677
1320
root 0.200999 17.6213 7.98238 13.4017 -2.70068 -7.32075
lowerback 10.2893 -0.856928 5.15945
upperback -0.769704 -0.415 1.28473
thorax -6.62941 -0.362301 -1.48712
lowerneck 3.88059 -9.95078 -9.51865
upperneck -3.55186 -13.43 18.8748
head 0.31245 -7.00334 7.16485
rclavicle 6.85807e-015 -5.96354e-015
rhumerus -21.0135 46.3238 -59.9058
rradius 142.109
rwrist -31.9693
rhand 68.0555 -44.3011
rfingers 7.12502
rthumb 74.3008 17.4094
lclavicle 6.85807e-015 -5.96354e-015
lhumerus -20.7245 -56.5037 67.0454
lradius 141.118
lwrist 27.8809
lhand -1.46118 -38.1972
lfingers 7.12502
lthumb 24.1901 -9.70268
rfemur -13.8324 23.6095 19.6838
rtibia 7.69149
rfoot -10.6148 -24.3012
rtoes -2.15468
lfemur -7.52589 -33.0653 -6.05523
ltibia -0.583765
lfoot -12.7934 44.6252
ltoes 2.58956
1321
root 0.204943 17.6209 7.9935 13.3204 -2.74852 -7.3599
lowerback 10.3244 -0.896399 5.28471
upperback -1.08432 -0.437451 1.27137
thorax -6.98843 -0.390793 -1.5641
lowerneck 3.54315 -10.4831 -10.2137
upperneck -2.63231 -14.3079 19.4622
head 0.859207 -7.39704 7.34836
rclavicle 1.19271e-015 -2.50469e-014
rhumerus -20.9195 46.6839 -60.1115
rradius 141.94
rwrist -31.1408
rhand 67.8909 -41.8301
rfingers 7.12502
rthumb 74.3473 19.318
lclavicle 1.19271e-015 -2.50469e-014
lhumerus -21.1446 -56.3967 67.5725
lradius 141.128
lwrist 27.938
lhand -1.51141 -38.1543
lfingers 7.12502
lthumb 24.1419 -9.6534
rfemur -13.8022 23.4679 19.7881
rtibia 7.88463
rfoot -10.6434 -24.0871
rtoes -2.33024
lfemur -7.32758 -33.0777 -6.15091
ltibia -0.610071
lfoot -12.7042 44.6815
ltoes 2.54221
1322
root 0.207726 17.6217 8.00217 13.3383 -2.80281 -7.45687
lowerback 10.2358 -0.919893 5.42032
upperback -1.35404 -0.444393 1.30275
thorax -7.22871 -0.408561 -1.60362
lowerneck 1.02971 -11.6117 -10.6787
upperneck 0.6303 -16.1504 18.9881
head 2.49367 -8.07031 6.87077
rclavicle -6.06293e-015 4.77083e-015
rhumerus -20.7142 46.8388 -60.1649
rradius 141.955
rwrist -30.8503
rhand 68.0399 -41.8706
rfingers 7.12502
rthumb 74.3052 19.7867
lclavicle -6.06293e-015 4.77083e-015
lhumerus -21.5619 -56.2585 68.0826
lradius 141.142
lwrist 27.9189
lhand -1.59877 -38.1633
lfingers 7.12502
lthumb 24.0582 -9.65132
rfemur -13.9277 23.2656 19.9046
rtibia 8.12122
rfoot -10.6711 -23.7804
rtoes -2.36287
lfemur -7.27777 -33.0231 -6.07653
ltibia -0.634332
lfoot -12.6316 44.7243
ltoes 2.33581
1323
root 0.209262 17.6226 8.00756 13.3521 -2.92087 -7.4895
lowerback 10.189 -0.935043 5.40556
upperback -1.59238 -0.455936 1.35731
thorax -7.45797 -0.42133 -1.53326
lowerneck -0.0350893 -12.5114 -11.5038
upperneck 2.30833 -17.5737 19.1658
head 3.46814 -8.66169 6.78839
rclavicle 5.56597e-015 1.70955e-014
rhumerus -20.5603 47.0212 -60.1728
rradius 142.093
rwrist -30.7275
rhand 68.3633 -43.4161
rfingers 7.12502
rthumb 74.2096 19.3373
lclavicle 5.56597e-015 1.70955e-014
lhumerus -22.1022 -56.0691 68.7006
lradius 141.096
lwrist 27.8863
lhand -1.78766 -38.0894
lfingers 7.12502
lthumb 23.877 -9.55365
rfemur -14.0988 23.0206 19.929
rtibia 8.40266
rfoot -10.7301 -23.3766
rtoes -2.27523
lfemur -7.2133 -33.0518 -6.08463
ltibia -0.657229
lfoot -12.7536 44.858
ltoes 2.4799
1324
root 0.20895 17.6224 8.01041 13.3128 -3.05061 -7.47637
lowerback 10.2466 -0.931817 5.36008
upperback -1.75423 -0.44268 1.41089
thorax -7.6632 -0.418667 -1.45054
lowerneck -0.9375 -13.2533 -11.813
upperneck 3.72525 -18.7217 18.9781
head 4.22675 -9.13178 6.5454
rclavicle -5.56597e-015 5.56597e-015
rhumerus -20.3753 47.089 -60.0549
rradius 142.174
rwrist -30.7582
rhand 68.5613 -44.634
rfingers 7.12502
rthumb 74.1481 18.7836
lclavicle -5.56597e-015 5.56597e-015
lhumerus -22.6794 -55.8988 69.4394
lradius 141.03
lwrist 27.7334
lhand -1.91366 -37.8395
lfingers 7.12502
lthumb 23.7562 -9.288
rfemur -14.188 22.8561 19.9246
rtibia 8.64369
rfoot -10.837 -23.085
rtoes -2.17102
lfemur -7.05139 -33.2164 -6.18714
ltibia -0.732736
lfoot -12.9446 45.1016
ltoes 2.81058
1325
root 0.207664 17.6219 8.00936 13.2291 -3.09975 -7.44507
lowerback 10.4258 -0.942123 5.33406
upperback -1.86368 -0.43805 1.46907
thorax -7.88332 -0.420128 -1.37159
lowerneck -0.834244 -13.8799 -12.1807
upperneck 3.68343 -19.6098 19.224
head 4.4005 -9.57325 6.56547
rclavicle -1.6201e-014 3.33958e-014
rhumerus -20.2157 47.053 -59.8689
rradius 142.172
rwrist -30.784
rhand 68.4259 -44.7755
rfingers 7.12502
rthumb 74.1904 18.1883
lclavicle -1.6201e-014 3.33958e-014
lhumerus -23.317 -55.7612 70.2957
lradius 141.013
lwrist 27.478
lhand -2.25122 -37.5687
lfingers 7.12502
lthumb 23.4324 -8.97545
rfemur -14.1523 22.7692 19.9234
rtibia 8.74852
rfoot -10.9434 -22.9261
rtoes -2.0928
lfemur -6.88923 -33.3601 -6.30237
ltibia -0.807805
lfoot -13.046 45.2473
ltoes 2.92504
1326
root 0.206396 17.6213 8.0031 13.0939 -3.05776 -7.38101
lowerback 10.7074 -1.03343 5.24232
upperback -1.91769 -0.544454 1.53983
thorax -8.10894 -0.471051 -1.2221
lowerneck 0.465786 -14.2389 -12.6285
upperneck 1.88432 -20.0217 20.1407
head 3.86698 -9.90469 6.99126
rclavicle -9.54166e-015 1.98785e-014
rhumerus -19.9073 47.0018 -59.5503
rradius 142.23
rwrist -30.7663
rhand 68.2867 -44.5793
rfingers 7.12502
rthumb 74.2328 17.9156
lclavicle -9.54166e-015 1.98785e-014
lhumerus -23.7406 -55.3978 70.8362
lradius 140.999
lwrist 27.4116
lhand -2.63341 -37.5811
lfingers 7.12502
lthumb 23.0658 -8.94151
rfemur -14.03 22.7211 19.9022
rtibia 8.78366
rfoot -11.0289 -22.8558
rtoes -1.94786
lfemur -6.78823 -33.2373 -6.45236
ltibia -0.768519
lfoot -12.8454 45.0732
ltoes 2.59796
1327
root 0.20585 17.62 7.99144 12.9342 -2.98038 -7.27085
lowerback 10.9911 -1.20756 5.06053
upperback -1.78032 -0.778073 1.66313
thorax -8.13305 -0.570919 -0.9451
lowerneck 2.33469 -14.433 -12.7498
upperneck -1.44515 -20.0156 21.2153
head 2.72133 -10.1258 7.5757
rclavicle -1.98785e-016 1.66979e-014
rhumerus -18.9867 46.8339 -58.7265
rradius 142.4
rwrist -30.7913
rhand 68.223 -44.5497
rfingers 7.12502
rthumb 74.2518 17.7299
lclavicle -1.98785e-016 1.66979e-014
lhumerus -23.646 -54.5405 70.7912
lradius 141.027
lwrist 27.4802
lhand -2.52457 -37.8315
lfingers 7.12502
lthumb 23.1702 -9.20506
rfemur -13.9156 22.6906 19.8265
rtibia 8.84217
rfoot -11.1023 -22.8745
rtoes -1.78339
lfemur -6.74226 -32.9401 -6.65019
ltibia -0.656487
lfoot -12.4277 44.7092
ltoes 1.97424
1328
root 0.20705 17.6187 7.97385 12.8319 -2.89406 -7.24743
lowerback 11.2092 -1.38979 5.00795
upperback -1.41632 -1.01275 1.86768
thorax -7.87349 -0.667531 -0.658717
lowerneck 4.51677 -14.5955 -12.6968
upperneck -5.99614 -19.7793 22.3838
head 1.14657 -10.3098 8.30045
rclavicle 1.78906e-015 -1.11319e-014
rhumerus -17.8089 46.3734 -57.6756
rradius 142.637
rwrist -30.7523
rhand 68.1693 -44.7371
rfingers 7.12502
rthumb 74.2677 17.3603
lclavicle 1.78906e-015 -1.11319e-014
lhumerus -23.2481 -53.3894 70.5001
lradius 141.172
lwrist 27.2477
lhand -2.15139 -38.1385
lfingers 7.12502
lthumb 23.5282 -9.55748
rfemur -13.9256 22.5896 19.8233
rtibia 8.97372
rfoot -11.1552 -22.8544
rtoes -1.67626
lfemur -6.83504 -32.5888 -6.66421
ltibia -0.522707
lfoot -12.1031 44.314
ltoes 1.42754
